<mxfile host="Electron" modified="2023-05-20T14:00:37.372Z" agent="Mozilla/5.0 (Windows NT 10.0; Win64; x64) AppleWebKit/537.36 (KHTML, like Gecko) draw.io/21.2.1 Chrome/112.0.5615.87 Electron/24.1.2 Safari/537.36" etag="JdDkuyNo2fj44bUDjhkk" version="21.2.1" type="device">
  <diagram name="第 1 页" id="5pqwXtO0SPzmDA8-JIuP">
    <mxGraphModel dx="1444" dy="784" grid="0" gridSize="10" guides="1" tooltips="1" connect="1" arrows="1" fold="1" page="0" pageScale="1" pageWidth="827" pageHeight="1169" math="0" shadow="0">
      <root>
        <mxCell id="0" />
        <mxCell id="1" parent="0" />
        <mxCell id="U_vMJi1dN6wIy1W_CmEU-1" value="微信用户" style="rounded=0;whiteSpace=wrap;html=1;strokeColor=#0F8B8D;fontSize=16;fontColor=#143642;fillColor=#FAE5C7;labelBackgroundColor=none;" vertex="1" parent="1">
          <mxGeometry x="169" y="28" width="120" height="60" as="geometry" />
        </mxCell>
        <mxCell id="U_vMJi1dN6wIy1W_CmEU-3" value="标志" style="ellipse;whiteSpace=wrap;html=1;strokeColor=#0F8B8D;fontSize=16;fontColor=#143642;fillColor=#FAE5C7;labelBackgroundColor=none;" vertex="1" parent="1">
          <mxGeometry x="399" y="28" width="80" height="60" as="geometry" />
        </mxCell>
        <mxCell id="U_vMJi1dN6wIy1W_CmEU-4" value="创建时间" style="ellipse;whiteSpace=wrap;html=1;strokeColor=#0F8B8D;fontSize=16;fontColor=#143642;fillColor=#FAE5C7;labelBackgroundColor=none;" vertex="1" parent="1">
          <mxGeometry x="189" y="158" width="80" height="60" as="geometry" />
        </mxCell>
        <mxCell id="U_vMJi1dN6wIy1W_CmEU-6" value="昵称" style="ellipse;whiteSpace=wrap;html=1;strokeColor=#0F8B8D;fontSize=16;fontColor=#143642;fillColor=#FAE5C7;labelBackgroundColor=none;" vertex="1" parent="1">
          <mxGeometry x="-11" y="28" width="80" height="60" as="geometry" />
        </mxCell>
        <mxCell id="U_vMJi1dN6wIy1W_CmEU-7" value="Open ID" style="ellipse;whiteSpace=wrap;html=1;strokeColor=#0F8B8D;fontSize=16;fontColor=#143642;fillColor=#FAE5C7;labelBackgroundColor=none;" vertex="1" parent="1">
          <mxGeometry x="44" y="120" width="80" height="60" as="geometry" />
        </mxCell>
        <mxCell id="U_vMJi1dN6wIy1W_CmEU-8" value="ID" style="ellipse;whiteSpace=wrap;html=1;strokeColor=#0F8B8D;fontSize=16;fontColor=#143642;fillColor=#FAE5C7;labelBackgroundColor=none;" vertex="1" parent="1">
          <mxGeometry x="189" y="-102" width="80" height="60" as="geometry" />
        </mxCell>
        <mxCell id="U_vMJi1dN6wIy1W_CmEU-9" value="状态" style="ellipse;whiteSpace=wrap;html=1;strokeColor=#0F8B8D;fontSize=16;fontColor=#143642;fillColor=#FAE5C7;labelBackgroundColor=none;" vertex="1" parent="1">
          <mxGeometry x="340" y="113" width="80" height="60" as="geometry" />
        </mxCell>
        <mxCell id="U_vMJi1dN6wIy1W_CmEU-10" value="" style="endArrow=none;html=1;rounded=0;strokeColor=#A8201A;fontSize=12;fontColor=default;startSize=8;endSize=8;fillColor=#FAE5C7;curved=1;entryX=0.5;entryY=1;entryDx=0;entryDy=0;exitX=0.5;exitY=0;exitDx=0;exitDy=0;labelBackgroundColor=none;" edge="1" parent="1" source="U_vMJi1dN6wIy1W_CmEU-1" target="U_vMJi1dN6wIy1W_CmEU-8">
          <mxGeometry width="50" height="50" relative="1" as="geometry">
            <mxPoint x="99" y="108" as="sourcePoint" />
            <mxPoint x="149" y="58" as="targetPoint" />
          </mxGeometry>
        </mxCell>
        <mxCell id="U_vMJi1dN6wIy1W_CmEU-11" value="" style="endArrow=none;html=1;rounded=0;strokeColor=#A8201A;fontSize=12;fontColor=default;startSize=8;endSize=8;fillColor=#FAE5C7;curved=1;exitX=1;exitY=1;exitDx=0;exitDy=0;labelBackgroundColor=none;" edge="1" parent="1" source="U_vMJi1dN6wIy1W_CmEU-1">
          <mxGeometry width="50" height="50" relative="1" as="geometry">
            <mxPoint x="99" y="108" as="sourcePoint" />
            <mxPoint x="354" y="120" as="targetPoint" />
          </mxGeometry>
        </mxCell>
        <mxCell id="U_vMJi1dN6wIy1W_CmEU-12" value="" style="endArrow=none;html=1;rounded=0;strokeColor=#A8201A;fontSize=12;fontColor=default;startSize=8;endSize=8;fillColor=#FAE5C7;curved=1;entryX=1;entryY=0;entryDx=0;entryDy=0;exitX=0;exitY=1;exitDx=0;exitDy=0;labelBackgroundColor=none;" edge="1" parent="1" source="U_vMJi1dN6wIy1W_CmEU-1" target="U_vMJi1dN6wIy1W_CmEU-7">
          <mxGeometry width="50" height="50" relative="1" as="geometry">
            <mxPoint x="99" y="108" as="sourcePoint" />
            <mxPoint x="149" y="58" as="targetPoint" />
          </mxGeometry>
        </mxCell>
        <mxCell id="U_vMJi1dN6wIy1W_CmEU-13" value="" style="endArrow=none;html=1;rounded=0;strokeColor=#A8201A;fontSize=12;fontColor=default;startSize=8;endSize=8;fillColor=#FAE5C7;curved=1;entryX=0;entryY=0.5;entryDx=0;entryDy=0;exitX=1;exitY=0.5;exitDx=0;exitDy=0;labelBackgroundColor=none;" edge="1" parent="1" source="U_vMJi1dN6wIy1W_CmEU-6" target="U_vMJi1dN6wIy1W_CmEU-1">
          <mxGeometry width="50" height="50" relative="1" as="geometry">
            <mxPoint x="99" y="108" as="sourcePoint" />
            <mxPoint x="149" y="58" as="targetPoint" />
          </mxGeometry>
        </mxCell>
        <mxCell id="U_vMJi1dN6wIy1W_CmEU-14" value="" style="endArrow=none;html=1;rounded=0;strokeColor=#A8201A;fontSize=12;fontColor=default;startSize=8;endSize=8;fillColor=#FAE5C7;curved=1;entryX=0;entryY=0.5;entryDx=0;entryDy=0;exitX=1;exitY=0.5;exitDx=0;exitDy=0;labelBackgroundColor=none;" edge="1" parent="1" source="U_vMJi1dN6wIy1W_CmEU-1" target="U_vMJi1dN6wIy1W_CmEU-3">
          <mxGeometry width="50" height="50" relative="1" as="geometry">
            <mxPoint x="99" y="108" as="sourcePoint" />
            <mxPoint x="149" y="58" as="targetPoint" />
          </mxGeometry>
        </mxCell>
        <mxCell id="U_vMJi1dN6wIy1W_CmEU-16" value="" style="endArrow=none;html=1;rounded=0;strokeColor=#A8201A;fontSize=12;fontColor=default;startSize=8;endSize=8;fillColor=#FAE5C7;curved=1;entryX=0.5;entryY=1;entryDx=0;entryDy=0;exitX=0.5;exitY=0;exitDx=0;exitDy=0;labelBackgroundColor=none;" edge="1" parent="1" source="U_vMJi1dN6wIy1W_CmEU-4" target="U_vMJi1dN6wIy1W_CmEU-1">
          <mxGeometry width="50" height="50" relative="1" as="geometry">
            <mxPoint x="99" y="108" as="sourcePoint" />
            <mxPoint x="149" y="58" as="targetPoint" />
          </mxGeometry>
        </mxCell>
      </root>
    </mxGraphModel>
  </diagram>
</mxfile>
